<mxfile host="app.diagrams.net" modified="2020-08-27T12:43:43.965Z" agent="5.0 (Windows)" etag="G2LWNPRFEypE0lM0PgO7" version="13.6.5" type="github">
  <diagram id="oiFANoDujP-l-gwhJsLV" name="Page-1">
    <mxGraphModel dx="1038" dy="547" grid="1" gridSize="10" guides="1" tooltips="1" connect="1" arrows="1" fold="1" page="1" pageScale="1" pageWidth="1169" pageHeight="827" math="0" shadow="0">
      <root>
        <mxCell id="0" />
        <mxCell id="1" parent="0" />
        <mxCell id="7xh7Emo96n7mJenzUcJH-1" value="Trade Information - Information Dissemination" style="swimlane;html=1;childLayout=stackLayout;resizeParent=1;resizeParentMax=0;horizontal=1;startSize=20;horizontalStack=0;" vertex="1" parent="1">
          <mxGeometry x="40" y="70" width="1060" height="620" as="geometry" />
        </mxCell>
        <mxCell id="7xh7Emo96n7mJenzUcJH-2" value="TAS" style="swimlane;html=1;startSize=20;horizontal=0;" vertex="1" parent="7xh7Emo96n7mJenzUcJH-1">
          <mxGeometry y="20" width="1060" height="300" as="geometry" />
        </mxCell>
        <mxCell id="7xh7Emo96n7mJenzUcJH-9" value="Start" style="rounded=1;whiteSpace=wrap;html=1;" vertex="1" parent="7xh7Emo96n7mJenzUcJH-2">
          <mxGeometry x="80" y="9" width="120" height="40" as="geometry" />
        </mxCell>
        <mxCell id="7xh7Emo96n7mJenzUcJH-11" value="Information from different sources" style="shape=parallelogram;perimeter=parallelogramPerimeter;whiteSpace=wrap;html=1;fixedSize=1;" vertex="1" parent="7xh7Emo96n7mJenzUcJH-2">
          <mxGeometry x="250" y="70" width="130" height="40" as="geometry" />
        </mxCell>
        <mxCell id="7xh7Emo96n7mJenzUcJH-10" value="Information compilation" style="rounded=0;whiteSpace=wrap;html=1;" vertex="1" parent="7xh7Emo96n7mJenzUcJH-2">
          <mxGeometry x="80" y="70" width="120" height="40" as="geometry" />
        </mxCell>
        <mxCell id="7xh7Emo96n7mJenzUcJH-13" value="" style="edgeStyle=orthogonalEdgeStyle;rounded=0;orthogonalLoop=1;jettySize=auto;html=1;entryX=1;entryY=0.5;entryDx=0;entryDy=0;" edge="1" parent="7xh7Emo96n7mJenzUcJH-2" source="7xh7Emo96n7mJenzUcJH-11" target="7xh7Emo96n7mJenzUcJH-10">
          <mxGeometry relative="1" as="geometry">
            <mxPoint x="160" y="80" as="targetPoint" />
          </mxGeometry>
        </mxCell>
        <mxCell id="7xh7Emo96n7mJenzUcJH-14" value="" style="endArrow=classic;html=1;exitX=0.5;exitY=1;exitDx=0;exitDy=0;" edge="1" parent="7xh7Emo96n7mJenzUcJH-2" source="7xh7Emo96n7mJenzUcJH-9" target="7xh7Emo96n7mJenzUcJH-10">
          <mxGeometry width="50" height="50" relative="1" as="geometry">
            <mxPoint x="280" y="190" as="sourcePoint" />
            <mxPoint x="330" y="140" as="targetPoint" />
          </mxGeometry>
        </mxCell>
        <mxCell id="7xh7Emo96n7mJenzUcJH-27" value="End" style="rounded=1;whiteSpace=wrap;html=1;" vertex="1" parent="7xh7Emo96n7mJenzUcJH-2">
          <mxGeometry x="800" y="157.5" width="100" height="35" as="geometry" />
        </mxCell>
        <mxCell id="7xh7Emo96n7mJenzUcJH-17" value="updated list of recipients" style="shape=parallelogram;perimeter=parallelogramPerimeter;whiteSpace=wrap;html=1;fixedSize=1;" vertex="1" parent="7xh7Emo96n7mJenzUcJH-2">
          <mxGeometry x="250" y="150" width="120" height="50" as="geometry" />
        </mxCell>
        <mxCell id="7xh7Emo96n7mJenzUcJH-23" value="Group information into sectors/topics" style="whiteSpace=wrap;html=1;rounded=0;" vertex="1" parent="7xh7Emo96n7mJenzUcJH-2">
          <mxGeometry x="380" y="145" width="120" height="60" as="geometry" />
        </mxCell>
        <mxCell id="7xh7Emo96n7mJenzUcJH-3" value="Business Councillor/HODS/Sector specialists" style="swimlane;html=1;startSize=20;horizontal=0;" vertex="1" parent="7xh7Emo96n7mJenzUcJH-1">
          <mxGeometry y="320" width="1060" height="300" as="geometry" />
        </mxCell>
        <mxCell id="7xh7Emo96n7mJenzUcJH-20" value="" style="edgeStyle=orthogonalEdgeStyle;rounded=0;orthogonalLoop=1;jettySize=auto;html=1;" edge="1" parent="1" source="7xh7Emo96n7mJenzUcJH-15" target="7xh7Emo96n7mJenzUcJH-19">
          <mxGeometry relative="1" as="geometry" />
        </mxCell>
        <mxCell id="7xh7Emo96n7mJenzUcJH-15" value="Develop dissemination schedule" style="whiteSpace=wrap;html=1;rounded=0;" vertex="1" parent="1">
          <mxGeometry x="120" y="240" width="120" height="50" as="geometry" />
        </mxCell>
        <mxCell id="7xh7Emo96n7mJenzUcJH-16" value="" style="edgeStyle=orthogonalEdgeStyle;rounded=0;orthogonalLoop=1;jettySize=auto;html=1;" edge="1" parent="1" source="7xh7Emo96n7mJenzUcJH-10" target="7xh7Emo96n7mJenzUcJH-15">
          <mxGeometry relative="1" as="geometry" />
        </mxCell>
        <mxCell id="7xh7Emo96n7mJenzUcJH-18" value="" style="edgeStyle=orthogonalEdgeStyle;rounded=0;orthogonalLoop=1;jettySize=auto;html=1;" edge="1" parent="1" source="7xh7Emo96n7mJenzUcJH-17" target="7xh7Emo96n7mJenzUcJH-15">
          <mxGeometry relative="1" as="geometry" />
        </mxCell>
        <mxCell id="7xh7Emo96n7mJenzUcJH-22" value="" style="edgeStyle=orthogonalEdgeStyle;rounded=0;orthogonalLoop=1;jettySize=auto;html=1;" edge="1" parent="1" source="7xh7Emo96n7mJenzUcJH-19" target="7xh7Emo96n7mJenzUcJH-21">
          <mxGeometry relative="1" as="geometry" />
        </mxCell>
        <mxCell id="7xh7Emo96n7mJenzUcJH-19" value="Request additional information from HODs, Specialists, business councillor" style="whiteSpace=wrap;html=1;rounded=0;" vertex="1" parent="1">
          <mxGeometry x="110" y="326" width="140" height="60" as="geometry" />
        </mxCell>
        <mxCell id="7xh7Emo96n7mJenzUcJH-24" value="" style="edgeStyle=orthogonalEdgeStyle;rounded=0;orthogonalLoop=1;jettySize=auto;html=1;" edge="1" parent="1" source="7xh7Emo96n7mJenzUcJH-21" target="7xh7Emo96n7mJenzUcJH-23">
          <mxGeometry relative="1" as="geometry" />
        </mxCell>
        <mxCell id="7xh7Emo96n7mJenzUcJH-21" value="Compile and submit information" style="whiteSpace=wrap;html=1;rounded=0;" vertex="1" parent="1">
          <mxGeometry x="120" y="450" width="120" height="50" as="geometry" />
        </mxCell>
        <mxCell id="7xh7Emo96n7mJenzUcJH-25" value="Disseminate" style="whiteSpace=wrap;html=1;rounded=0;" vertex="1" parent="1">
          <mxGeometry x="620" y="235" width="120" height="60" as="geometry" />
        </mxCell>
        <mxCell id="7xh7Emo96n7mJenzUcJH-26" value="" style="edgeStyle=orthogonalEdgeStyle;rounded=0;orthogonalLoop=1;jettySize=auto;html=1;" edge="1" parent="1" source="7xh7Emo96n7mJenzUcJH-23" target="7xh7Emo96n7mJenzUcJH-25">
          <mxGeometry relative="1" as="geometry" />
        </mxCell>
        <mxCell id="7xh7Emo96n7mJenzUcJH-28" value="" style="endArrow=classic;html=1;exitX=1;exitY=0.5;exitDx=0;exitDy=0;entryX=0;entryY=0.5;entryDx=0;entryDy=0;" edge="1" parent="1" source="7xh7Emo96n7mJenzUcJH-25" target="7xh7Emo96n7mJenzUcJH-27">
          <mxGeometry width="50" height="50" relative="1" as="geometry">
            <mxPoint x="660" y="390" as="sourcePoint" />
            <mxPoint x="710" y="340" as="targetPoint" />
          </mxGeometry>
        </mxCell>
      </root>
    </mxGraphModel>
  </diagram>
</mxfile>
